<?xml version="1.0" encoding="UTF-8"?>
<!DOCTYPE svg PUBLIC "-//W3C//DTD SVG 1.1//EN" "http://www.w3.org/Graphics/SVG/1.1/DTD/svg11.dtd">
<svg xmlns="http://www.w3.org/2000/svg" version="1.1" width="700px" height="700px" style="shape-rendering:geometricPrecision; text-rendering:geometricPrecision; image-rendering:optimizeQuality; fill-rule:evenodd; clip-rule:evenodd" xmlns:xlink="http://www.w3.org/1999/xlink">
<g><path style="opacity:1" fill="#fefefe" d="M -0.5,-0.5 C 232.833,-0.5 466.167,-0.5 699.5,-0.5C 699.5,232.833 699.5,466.167 699.5,699.5C 466.167,699.5 232.833,699.5 -0.5,699.5C -0.5,466.167 -0.5,232.833 -0.5,-0.5 Z"/></g>
<g><path style="opacity:1" fill="#dff9fa" d="M 327.5,163.5 C 316.193,164.409 305.193,167.076 294.5,171.5C 294.167,172.167 293.833,172.833 293.5,173.5C 295.484,179.437 297.15,185.437 298.5,191.5C 297.5,191.5 296.5,191.5 295.5,191.5C 294.124,186.632 293.29,181.632 293,176.5C 292.075,175.953 291.242,175.287 290.5,174.5C 291.246,173.264 291.579,171.93 291.5,170.5C 293.905,169.313 296.239,167.813 298.5,166C 308.034,164.13 317.701,163.297 327.5,163.5 Z"/></g>
<g><path style="opacity:1" fill="#e1f8fa" d="M 371.5,163.5 C 377.157,163.704 382.657,163.704 388,163.5C 392.567,165.516 397.4,166.683 402.5,167C 407.435,167.767 410.102,170.6 410.5,175.5C 409.325,175.281 408.325,175.614 407.5,176.5C 405.426,180.645 403.926,184.979 403,189.5C 402.329,190.252 401.496,190.586 400.5,190.5C 402.008,184.806 403.674,179.14 405.5,173.5C 405.167,172.833 404.833,172.167 404.5,171.5C 393.723,167.434 382.723,164.768 371.5,163.5 Z"/></g>
<g><path style="opacity:1" fill="#34a7b5" d="M 327.5,163.5 C 328.5,163.5 329.5,163.5 330.5,163.5C 333.5,163.5 336.5,163.5 339.5,163.5C 339.039,182.235 339.539,200.902 341,219.5C 344.688,224.706 349.521,225.872 355.5,223C 356.163,221.482 357.163,220.315 358.5,219.5C 360.045,218.77 360.878,217.437 361,215.5C 361.401,199.434 361.568,183.434 361.5,167.5C 370.134,167.566 379.134,167.732 388.5,168C 393.929,168.77 398.929,170.603 403.5,173.5C 402.939,176.99 401.439,179.99 399,182.5C 398.262,189.485 396.762,196.318 394.5,203C 394.57,203.765 394.903,204.265 395.5,204.5C 394.172,208.818 392.839,213.151 391.5,217.5C 388.738,223.167 386.572,229.167 385,235.5C 384.653,237.18 383.653,238.18 382,238.5C 359.506,231.956 337.006,231.956 314.5,238.5C 311.437,226.895 307.77,215.562 303.5,204.5C 302.34,200.531 301.173,196.531 300,192.5C 299.617,191.944 299.117,191.611 298.5,191.5C 297.15,185.437 295.484,179.437 293.5,173.5C 293.833,172.833 294.167,172.167 294.5,171.5C 305.193,167.076 316.193,164.409 327.5,163.5 Z"/></g>
<g><path style="opacity:1" fill="#defafb" d="M 367.5,163.5 C 364.833,163.5 362.167,163.5 359.5,163.5C 359.808,182.213 359.474,200.88 358.5,219.5C 357.163,220.315 356.163,221.482 355.5,223C 349.521,225.872 344.688,224.706 341,219.5C 339.539,200.902 339.039,182.235 339.5,163.5C 336.5,163.5 333.5,163.5 330.5,163.5C 333.899,162.18 337.399,162.18 341,163.5C 341.333,181.167 341.667,198.833 342,216.5C 342.374,217.416 342.874,218.25 343.5,219C 346.167,219.333 348.833,219.667 351.5,220C 350.672,220.915 349.672,221.581 348.5,222C 350.473,222.495 352.473,222.662 354.5,222.5C 354.132,219.376 355.298,217.043 358,215.5C 358.167,197.491 358.667,179.491 359.5,161.5C 362.761,159.982 365.427,160.648 367.5,163.5 Z"/></g>
<g><path style="opacity:1" fill="#4aa5ad" d="M 367.5,163.5 C 368.833,163.5 370.167,163.5 371.5,163.5C 382.723,164.768 393.723,167.434 404.5,171.5C 404.833,172.167 405.167,172.833 405.5,173.5C 403.674,179.14 402.008,184.806 400.5,190.5C 398.441,195.01 396.774,199.677 395.5,204.5C 394.903,204.265 394.57,203.765 394.5,203C 396.762,196.318 398.262,189.485 399,182.5C 401.439,179.99 402.939,176.99 403.5,173.5C 398.929,170.603 393.929,168.77 388.5,168C 379.134,167.732 370.134,167.566 361.5,167.5C 361.568,183.434 361.401,199.434 361,215.5C 360.878,217.437 360.045,218.77 358.5,219.5C 359.474,200.88 359.808,182.213 359.5,163.5C 362.167,163.5 364.833,163.5 367.5,163.5 Z"/></g>
<g><path style="opacity:1" fill="#faf6e1" d="M 268.5,191.5 C 266.837,189.507 265.67,187.174 265,184.5C 264.439,183.978 263.772,183.645 263,183.5C 258.004,186.347 253.171,189.347 248.5,192.5C 242.545,195.818 236.878,199.651 231.5,204C 228.882,206.106 226.882,208.606 225.5,211.5C 224.305,211.134 223.639,210.301 223.5,209C 225.868,207.619 227.535,205.619 228.5,203C 232.464,202.252 234.798,199.919 235.5,196C 240.077,193.876 244.743,192.043 249.5,190.5C 249.162,187.675 250.162,185.508 252.5,184C 257.156,183.335 261.823,182.835 266.5,182.5C 267.92,185.261 268.587,188.261 268.5,191.5 Z"/></g>
<g><path style="opacity:1" fill="#144869" d="M 463.5,201.5 C 462.788,202.739 461.788,203.239 460.5,203C 457.123,199.34 453.457,196.173 449.5,193.5C 447.167,192.833 444.833,192.167 442.5,191.5C 441.147,190.476 440.48,189.143 440.5,187.5C 438.396,187.201 436.396,187.534 434.5,188.5C 433.021,192.054 431.854,195.72 431,199.5C 426.726,203.605 424.726,208.605 425,214.5C 426.483,217.161 428.65,218.828 431.5,219.5C 431.5,220.833 431.5,222.167 431.5,223.5C 429.5,223.5 427.5,223.5 425.5,223.5C 425.956,218.248 423.956,216.748 419.5,219C 418.488,222.361 416.988,225.528 415,228.5C 414.329,229.252 413.496,229.586 412.5,229.5C 419.628,213.91 427.295,198.577 435.5,183.5C 445.545,188.514 454.878,194.514 463.5,201.5 Z"/></g>
<g><path style="opacity:1" fill="#a0854b" d="M 248.5,192.5 C 243.666,199.327 237.332,204.327 229.5,207.5C 229.343,208.873 229.51,210.207 230,211.5C 234.698,214.061 237.865,217.894 239.5,223C 243.58,224.577 246.58,227.41 248.5,231.5C 253.065,233.289 255.732,236.622 256.5,241.5C 246.14,231.806 236.14,221.806 226.5,211.5C 226.167,211.5 225.833,211.5 225.5,211.5C 226.882,208.606 228.882,206.106 231.5,204C 236.878,199.651 242.545,195.818 248.5,192.5 Z"/></g>
<g><path style="opacity:1" fill="#f7f3df" d="M 226.5,211.5 C 236.14,221.806 246.14,231.806 256.5,241.5C 258.461,243.963 260.628,246.297 263,248.5C 266.009,258.817 262.176,263.984 251.5,264C 247.95,261.396 244.616,258.563 241.5,255.5C 245.543,258.04 249.709,260.373 254,262.5C 260.232,261.285 262.899,257.619 262,251.5C 260.227,248.94 258.227,246.607 256,244.5C 254.407,246.285 252.907,246.452 251.5,245C 251.959,243.057 250.959,241.724 248.5,241C 249.515,237.097 247.848,235.097 243.5,235C 239.425,228.258 233.925,222.758 227,218.5C 226.503,216.19 226.337,213.857 226.5,211.5 Z"/></g>
<g><path style="opacity:1" fill="#f9f3dc" d="M 271.5,197.5 C 276.521,201.194 279.355,206.194 280,212.5C 284.253,217.007 286.92,222.34 288,228.5C 290.962,231.548 292.462,235.215 292.5,239.5C 285.008,225.849 278.008,211.849 271.5,197.5 Z"/></g>
<g><path style="opacity:1" fill="#ddf7f9" d="M 303.5,204.5 C 307.77,215.562 311.437,226.895 314.5,238.5C 337.006,231.956 359.506,231.956 382,238.5C 383.653,238.18 384.653,237.18 385,235.5C 386.572,229.167 388.738,223.167 391.5,217.5C 390.859,221.423 390.859,225.257 391.5,229C 390.315,230.353 388.981,231.52 387.5,232.5C 387.156,235.036 386.156,237.203 384.5,239C 379.96,239.724 375.627,239.224 371.5,237.5C 369.471,237.67 367.471,238.004 365.5,238.5C 360.649,236.056 355.483,235.056 350,235.5C 343.149,235.759 336.316,236.259 329.5,237C 325.455,239.013 321.121,240.18 316.5,240.5C 314.275,240.695 312.609,239.861 311.5,238C 308.912,226.781 306.245,215.614 303.5,204.5 Z"/></g>
<g><path style="opacity:1" fill="#044773" d="M 463.5,201.5 C 467.436,203.766 470.769,206.766 473.5,210.5C 467.142,217.283 460.808,223.95 454.5,230.5C 450.141,234.528 445.807,238.528 441.5,242.5C 439.321,242.84 437.488,243.84 436,245.5C 435.258,248.657 433.758,251.323 431.5,253.5C 434.15,263.516 440.484,267.849 450.5,266.5C 458.712,256.12 468.046,246.954 478.5,239C 479.191,237.933 479.691,236.766 480,235.5C 482.491,233.71 484.658,231.543 486.5,229C 490.711,228.183 492.711,230.016 492.5,234.5C 494.592,234.561 496.092,235.561 497,237.5C 497.383,236.944 497.883,236.611 498.5,236.5C 504.917,244.994 510.583,253.994 515.5,263.5C 505.752,269.041 495.752,274.041 485.5,278.5C 483.396,278.201 481.396,278.534 479.5,279.5C 473.466,282.953 467.133,285.62 460.5,287.5C 460.5,288.5 460.5,289.5 460.5,290.5C 457.813,290.664 455.146,290.497 452.5,290C 451.692,288.294 450.359,287.461 448.5,287.5C 449.026,284.192 447.693,282.026 444.5,281C 444.833,280.667 445.167,280.333 445.5,280C 442.646,277.922 442.312,275.755 444.5,273.5C 444.167,273.167 443.833,272.833 443.5,272.5C 441.105,275.154 439.105,274.821 437.5,271.5C 438.59,270.391 438.59,269.391 437.5,268.5C 434.787,267.086 432.12,265.753 429.5,264.5C 429.44,260.604 427.44,258.438 423.5,258C 422.459,254.642 420.459,253.809 417.5,255.5C 412.851,252.526 408.184,249.526 403.5,246.5C 406.274,240.613 409.274,234.947 412.5,229.5C 413.496,229.586 414.329,229.252 415,228.5C 416.988,225.528 418.488,222.361 419.5,219C 423.956,216.748 425.956,218.248 425.5,223.5C 427.5,223.5 429.5,223.5 431.5,223.5C 431.5,222.167 431.5,220.833 431.5,219.5C 428.65,218.828 426.483,217.161 425,214.5C 424.726,208.605 426.726,203.605 431,199.5C 431.854,195.72 433.021,192.054 434.5,188.5C 436.396,187.534 438.396,187.201 440.5,187.5C 440.48,189.143 441.147,190.476 442.5,191.5C 444.833,192.167 447.167,192.833 449.5,193.5C 453.457,196.173 457.123,199.34 460.5,203C 461.788,203.239 462.788,202.739 463.5,201.5 Z"/></g>
<g><path style="opacity:1" fill="#a7833b" d="M 268.5,191.5 C 268.992,193.819 269.992,195.819 271.5,197.5C 278.008,211.849 285.008,225.849 292.5,239.5C 293.212,241.928 294.212,244.261 295.5,246.5C 290.279,249.271 285.279,252.271 280.5,255.5C 276.177,256.812 271.844,258.146 267.5,259.5C 268.561,264.717 266.561,268.05 261.5,269.5C 258.287,275.236 254.121,280.236 249,284.5C 248.667,286.5 248.333,288.5 248,290.5C 245.281,291.444 242.448,291.777 239.5,291.5C 233.849,289.341 228.516,286.674 223.5,283.5C 223.5,282.167 223.5,280.833 223.5,279.5C 218.711,278.912 214.378,277.078 210.5,274C 208.833,273.667 207.167,273.333 205.5,273C 203.167,271.333 200.833,269.667 198.5,268C 196.19,267.503 193.857,267.337 191.5,267.5C 189.847,267.34 188.514,266.674 187.5,265.5C 185.846,262.141 186.846,260.141 190.5,259.5C 190.167,256.5 191.5,255.167 194.5,255.5C 192.956,250.914 194.456,247.581 199,245.5C 199.991,246.43 200.491,247.596 200.5,249C 198.959,256.518 199.626,257.018 202.5,250.5C 204.2,255.908 205.2,255.742 205.5,250C 205.31,246.572 204.643,243.239 203.5,240C 204.019,237.813 205.352,236.313 207.5,235.5C 206.752,233.584 206.752,231.584 207.5,229.5C 208.873,229.343 210.207,229.51 211.5,230C 214.983,231.992 218.316,234.158 221.5,236.5C 222.167,236.5 222.5,236.833 222.5,237.5C 223.008,239.865 223.675,242.199 224.5,244.5C 226.937,245.926 229.437,247.259 232,248.5C 232.492,249.549 232.326,250.549 231.5,251.5C 233.631,251.338 234.631,252.671 234.5,255.5C 236.199,255.34 237.866,255.506 239.5,256C 242.509,259.342 245.843,262.342 249.5,265C 256.106,267.003 261.272,265.17 265,259.5C 267.244,250.991 264.411,244.991 256.5,241.5C 255.732,236.622 253.065,233.289 248.5,231.5C 246.58,227.41 243.58,224.577 239.5,223C 237.865,217.894 234.698,214.061 230,211.5C 229.51,210.207 229.343,208.873 229.5,207.5C 237.332,204.327 243.666,199.327 248.5,192.5C 253.171,189.347 258.004,186.347 263,183.5C 263.772,183.645 264.439,183.978 265,184.5C 265.67,187.174 266.837,189.507 268.5,191.5 Z"/></g>
<g><path style="opacity:1" fill="#a38548" d="M 211.5,225.5 C 214.922,229.182 218.256,232.849 221.5,236.5C 218.316,234.158 214.983,231.992 211.5,230C 210.207,229.51 208.873,229.343 207.5,229.5C 206.752,231.584 206.752,233.584 207.5,235.5C 205.352,236.313 204.019,237.813 203.5,240C 204.643,243.239 205.31,246.572 205.5,250C 205.2,255.742 204.2,255.908 202.5,250.5C 199.626,257.018 198.959,256.518 200.5,249C 200.491,247.596 199.991,246.43 199,245.5C 194.456,247.581 192.956,250.914 194.5,255.5C 191.5,255.167 190.167,256.5 190.5,259.5C 186.846,260.141 185.846,262.141 187.5,265.5C 183.169,264.995 182.336,262.995 185,259.5C 190.641,250.205 196.641,241.205 203,232.5C 205.436,229.553 208.269,227.22 211.5,225.5 Z"/></g>
<g><path style="opacity:1" fill="#9c854a" d="M 222.5,237.5 C 228.833,243.5 235.167,249.5 241.5,255.5C 244.616,258.563 247.95,261.396 251.5,264C 262.176,263.984 266.009,258.817 263,248.5C 260.628,246.297 258.461,243.963 256.5,241.5C 264.411,244.991 267.244,250.991 265,259.5C 261.272,265.17 256.106,267.003 249.5,265C 245.843,262.342 242.509,259.342 239.5,256C 237.866,255.506 236.199,255.34 234.5,255.5C 234.631,252.671 233.631,251.338 231.5,251.5C 232.326,250.549 232.492,249.549 232,248.5C 229.437,247.259 226.937,245.926 224.5,244.5C 223.675,242.199 223.008,239.865 222.5,237.5 Z"/></g>
<g><path style="opacity:1" fill="#f7f4e0" d="M 211.5,225.5 C 215.086,225.456 217.419,227.123 218.5,230.5C 224.383,231.554 228.216,234.887 230,240.5C 232,241.833 234,243.167 236,244.5C 235.775,247.825 237.108,250.158 240,251.5C 240.791,252.745 241.291,254.078 241.5,255.5C 235.167,249.5 228.833,243.5 222.5,237.5C 222.5,236.833 222.167,236.5 221.5,236.5C 218.256,232.849 214.922,229.182 211.5,225.5 Z"/></g>
<g><path style="opacity:1" fill="#d8ebf1" d="M 454.5,230.5 C 453.729,235.279 451.062,238.612 446.5,240.5C 445.774,243.393 443.941,245.059 441,245.5C 439.16,248.263 437.826,251.263 437,254.5C 436.667,253.833 436.333,253.167 436,252.5C 435.51,253.793 435.343,255.127 435.5,256.5C 434.387,255.054 434.22,253.387 435,251.5C 436.611,248.062 438.777,245.062 441.5,242.5C 445.807,238.528 450.141,234.528 454.5,230.5 Z"/></g>
<g><path style="opacity:1" fill="#17425f" d="M 498.5,236.5 C 497.883,236.611 497.383,236.944 497,237.5C 496.092,235.561 494.592,234.561 492.5,234.5C 492.711,230.016 490.711,228.183 486.5,229C 484.658,231.543 482.491,233.71 480,235.5C 479.691,236.766 479.191,237.933 478.5,239C 468.046,246.954 458.712,256.12 450.5,266.5C 440.484,267.849 434.15,263.516 431.5,253.5C 433.758,251.323 435.258,248.657 436,245.5C 437.488,243.84 439.321,242.84 441.5,242.5C 438.777,245.062 436.611,248.062 435,251.5C 434.22,253.387 434.387,255.054 435.5,256.5C 438.451,264.731 443.784,266.565 451.5,262C 463.681,249.652 476.014,237.486 488.5,225.5C 492.566,228.563 495.899,232.229 498.5,236.5 Z"/></g>
<g><path style="opacity:1" fill="#faf7e6" d="M 292.5,239.5 C 293.833,239.5 295.167,239.5 296.5,239.5C 297.331,243.476 297.497,247.476 297,251.5C 290.422,252.084 285.589,255.584 282.5,262C 279.966,262.516 277.8,263.683 276,265.5C 275.667,265.167 275.333,264.833 275,264.5C 272.509,266.939 269.676,268.939 266.5,270.5C 264.522,273.384 262.688,276.384 261,279.5C 257.103,280.62 255.27,283.287 255.5,287.5C 254.5,287.5 253.5,287.5 252.5,287.5C 254.227,283.052 256.727,279.052 260,275.5C 266.702,268.631 273.535,261.964 280.5,255.5C 285.279,252.271 290.279,249.271 295.5,246.5C 294.212,244.261 293.212,241.928 292.5,239.5 Z"/></g>
<g><path style="opacity:1" fill="#ecf7f9" d="M 440.5,278.5 C 445.227,283.608 449.227,289.274 452.5,295.5C 463.718,290.059 474.718,284.392 485.5,278.5C 495.752,274.041 505.752,269.041 515.5,263.5C 517.074,263.063 518.241,262.063 519,260.5C 518.689,261.935 518.855,263.268 519.5,264.5C 516.225,267.948 512.225,269.781 507.5,270C 507.833,270.333 508.167,270.667 508.5,271C 506.024,272.309 504.024,274.142 502.5,276.5C 498.889,277.262 495.222,277.762 491.5,278C 490.833,279 490.167,280 489.5,281C 486.957,281.14 484.623,281.806 482.5,283C 483.815,284.395 483.481,285.395 481.5,286C 482.167,286.333 482.833,286.667 483.5,287C 480.158,286.456 476.825,286.623 473.5,287.5C 471.99,289.509 470.323,291.342 468.5,293C 463.632,294.017 458.799,295.184 454,296.5C 450.09,295.452 447.59,292.952 446.5,289C 445.207,288.51 443.873,288.343 442.5,288.5C 442.684,284.921 442.017,281.587 440.5,278.5 Z"/></g>
<g><path style="opacity:1" fill="#a18852" d="M 191.5,267.5 C 193.857,267.337 196.19,267.503 198.5,268C 200.833,269.667 203.167,271.333 205.5,273C 207.167,273.333 208.833,273.667 210.5,274C 214.378,277.078 218.711,278.912 223.5,279.5C 223.5,280.833 223.5,282.167 223.5,283.5C 212.485,278.659 201.818,273.326 191.5,267.5 Z"/></g>
<g><path style="opacity:1" fill="#9f8550" d="M 280.5,255.5 C 273.535,261.964 266.702,268.631 260,275.5C 256.727,279.052 254.227,283.052 252.5,287.5C 250.249,289.146 248.582,291.313 247.5,294C 244.354,294.589 241.688,293.755 239.5,291.5C 242.448,291.777 245.281,291.444 248,290.5C 248.333,288.5 248.667,286.5 249,284.5C 254.121,280.236 258.287,275.236 261.5,269.5C 266.561,268.05 268.561,264.717 267.5,259.5C 271.844,258.146 276.177,256.812 280.5,255.5 Z"/></g>
<g><path style="opacity:1" fill="#1c4667" d="M 485.5,278.5 C 474.718,284.392 463.718,290.059 452.5,295.5C 449.227,289.274 445.227,283.608 440.5,278.5C 433.806,269.806 426.14,262.14 417.5,255.5C 420.459,253.809 422.459,254.642 423.5,258C 427.44,258.438 429.44,260.604 429.5,264.5C 432.12,265.753 434.787,267.086 437.5,268.5C 438.59,269.391 438.59,270.391 437.5,271.5C 439.105,274.821 441.105,275.154 443.5,272.5C 443.833,272.833 444.167,273.167 444.5,273.5C 442.312,275.755 442.646,277.922 445.5,280C 445.167,280.333 444.833,280.667 444.5,281C 447.693,282.026 449.026,284.192 448.5,287.5C 450.359,287.461 451.692,288.294 452.5,290C 455.146,290.497 457.813,290.664 460.5,290.5C 460.5,289.5 460.5,288.5 460.5,287.5C 467.133,285.62 473.466,282.953 479.5,279.5C 481.396,278.534 483.396,278.201 485.5,278.5 Z"/></g>
<g><path style="opacity:1" fill="#c4483f" d="M 175.5,294.5 C 173.486,294.392 171.82,295.058 170.5,296.5C 170.5,295.167 170.5,293.833 170.5,292.5C 172.698,292.12 174.365,292.787 175.5,294.5 Z"/></g>
<g><path style="opacity:1" fill="#6e225a" d="M 530.5,302.5 C 529.034,301.653 528.2,300.32 528,298.5C 527.275,297.941 526.442,297.608 525.5,297.5C 520.724,299.43 515.891,301.096 511,302.5C 508.956,301.228 507.122,301.561 505.5,303.5C 501.878,304.325 498.211,304.825 494.5,305C 489.815,307.57 484.815,309.07 479.5,309.5C 479.5,310.5 479.5,311.5 479.5,312.5C 474.053,314.611 468.386,315.945 462.5,316.5C 463.092,319.127 463.425,321.794 463.5,324.5C 462.13,321.381 461.13,318.048 460.5,314.5C 463.443,314.02 466.11,313.02 468.5,311.5C 487.95,305.572 507.283,299.239 526.5,292.5C 528.732,295.385 530.066,298.718 530.5,302.5 Z"/></g>
<g><path style="opacity:1" fill="#d52924" d="M 175.5,294.5 C 184.793,295.981 193.46,298.981 201.5,303.5C 194.1,301.652 186.767,299.486 179.5,297C 177.167,296.333 174.833,296.333 172.5,297C 170.869,303.643 168.869,310.143 166.5,316.5C 166.5,316.833 166.5,317.167 166.5,317.5C 166.167,317.5 165.833,317.5 165.5,317.5C 166.093,310.131 167.76,303.131 170.5,296.5C 171.82,295.058 173.486,294.392 175.5,294.5 Z"/></g>
<g><path style="opacity:1" fill="#fc0102" d="M 166.5,317.5 C 166.5,317.167 166.5,316.833 166.5,316.5C 167.158,317.398 167.824,318.398 168.5,319.5C 170.305,324.67 171.639,330.004 172.5,335.5C 173.167,328.553 173.5,321.719 173.5,315C 173.333,313.167 173.167,311.333 173,309.5C 172.465,311.271 171.631,311.604 170.5,310.5C 172.015,308.453 172.849,306.119 173,303.5C 173.333,303.833 173.667,304.167 174,304.5C 175.763,302.281 177.763,300.281 180,298.5C 185.669,300.263 185.169,301.43 178.5,302C 183.372,303.589 188.205,305.089 193,306.5C 195.453,305.507 197.953,305.34 200.5,306C 202.49,307.751 204.823,308.751 207.5,309C 207.043,309.414 206.709,309.914 206.5,310.5C 210.816,311.364 215.149,312.031 219.5,312.5C 219.5,313.833 219.5,315.167 219.5,316.5C 220.552,316.351 221.552,316.517 222.5,317C 219.193,318.195 219.027,319.028 222,319.5C 226.15,318.494 230.317,318.494 234.5,319.5C 232.398,331.632 231.231,343.965 231,356.5C 230.739,352.294 230.239,348.127 229.5,344C 228.99,342.174 228.156,342.007 227,343.5C 226.014,341.222 225.18,338.889 224.5,336.5C 223.5,336.167 222.5,335.833 221.5,335.5C 203.518,336.627 185.518,336.794 167.5,336C 169.418,334.23 169.918,332.063 169,329.5C 168.085,330.328 167.419,331.328 167,332.5C 166.501,327.511 166.334,322.511 166.5,317.5 Z"/></g>
<g><path style="opacity:1" fill="#d61b18" d="M 201.5,303.5 C 209.093,305.312 216.426,307.645 223.5,310.5C 220.15,310.665 216.817,310.498 213.5,310C 212.953,309.075 212.287,308.242 211.5,307.5C 207.838,306.73 204.505,305.397 201.5,303.5 Z"/></g>
<g><path style="opacity:1" fill="#ecd7ea" d="M 468.5,311.5 C 466.11,313.02 463.443,314.02 460.5,314.5C 461.13,318.048 462.13,321.381 463.5,324.5C 463.43,328.425 464.097,332.091 465.5,335.5C 465.826,343.684 465.492,351.684 464.5,359.5C 466.144,345.066 463.811,331.399 457.5,318.5C 458.833,317.167 458.833,315.833 457.5,314.5C 458.655,313.05 460.155,312.05 462,311.5C 463.956,311.784 466.123,311.784 468.5,311.5 Z"/></g>
<g><path style="opacity:1" fill="#c6332e" d="M 223.5,310.5 C 228.586,311.545 233.586,312.878 238.5,314.5C 238.58,317.781 237.913,320.781 236.5,323.5C 238.024,316.645 235.357,313.478 228.5,314C 226.404,313.263 224.737,312.097 223.5,310.5 Z"/></g>
<g><path style="opacity:1" fill="#d85249" d="M 165.5,318.5 C 165.72,323.1 165.054,327.433 163.5,331.5C 163.28,326.9 163.946,322.567 165.5,318.5 Z"/></g>
<g><path style="opacity:1" fill="#c62521" d="M 236.5,324.5 C 235.575,328.79 234.909,333.124 234.5,337.5C 234.167,337.5 233.833,337.5 233.5,337.5C 233.335,334.15 233.502,330.817 234,327.5C 234.377,326.058 235.21,325.058 236.5,324.5 Z"/></g>
<g><path style="opacity:1" fill="#f00607" d="M 201.5,303.5 C 204.505,305.397 207.838,306.73 211.5,307.5C 212.287,308.242 212.953,309.075 213.5,310C 216.817,310.498 220.15,310.665 223.5,310.5C 224.737,312.097 226.404,313.263 228.5,314C 235.357,313.478 238.024,316.645 236.5,323.5C 236.5,323.833 236.5,324.167 236.5,324.5C 235.21,325.058 234.377,326.058 234,327.5C 233.502,330.817 233.335,334.15 233.5,337.5C 233.334,347.839 233.5,358.172 234,368.5C 234.524,372.571 235.358,376.571 236.5,380.5C 236.197,382.114 235.53,383.448 234.5,384.5C 233.791,385.404 232.791,385.737 231.5,385.5C 229.139,385.674 226.806,386.007 224.5,386.5C 221.894,383.384 222.894,382.051 227.5,382.5C 228.9,377.636 229.567,372.636 229.5,367.5C 230.5,367.5 231.5,367.5 232.5,367.5C 230.591,364.336 228.757,361.003 227,357.5C 225.951,359.107 224.451,359.773 222.5,359.5C 227.572,352.945 227.572,346.445 222.5,340C 221.207,339.51 219.873,339.343 218.5,339.5C 218.167,339.5 217.833,339.5 217.5,339.5C 199.674,338.503 181.674,338.17 163.5,338.5C 163.5,336.5 163.5,334.5 163.5,332.5C 163.5,332.167 163.5,331.833 163.5,331.5C 165.054,327.433 165.72,323.1 165.5,318.5C 165.5,318.167 165.5,317.833 165.5,317.5C 165.833,317.5 166.167,317.5 166.5,317.5C 166.334,322.511 166.501,327.511 167,332.5C 167.419,331.328 168.085,330.328 169,329.5C 169.918,332.063 169.418,334.23 167.5,336C 185.518,336.794 203.518,336.627 221.5,335.5C 222.5,335.833 223.5,336.167 224.5,336.5C 225.18,338.889 226.014,341.222 227,343.5C 228.156,342.007 228.99,342.174 229.5,344C 230.239,348.127 230.739,352.294 231,356.5C 231.231,343.965 232.398,331.632 234.5,319.5C 230.317,318.494 226.15,318.494 222,319.5C 219.027,319.028 219.193,318.195 222.5,317C 221.552,316.517 220.552,316.351 219.5,316.5C 219.5,315.167 219.5,313.833 219.5,312.5C 215.149,312.031 210.816,311.364 206.5,310.5C 206.709,309.914 207.043,309.414 207.5,309C 204.823,308.751 202.49,307.751 200.5,306C 197.953,305.34 195.453,305.507 193,306.5C 188.205,305.089 183.372,303.589 178.5,302C 185.169,301.43 185.669,300.263 180,298.5C 177.763,300.281 175.763,302.281 174,304.5C 173.667,304.167 173.333,303.833 173,303.5C 172.849,306.119 172.015,308.453 170.5,310.5C 171.631,311.604 172.465,311.271 173,309.5C 173.167,311.333 173.333,313.167 173.5,315C 173.5,321.719 173.167,328.553 172.5,335.5C 171.639,330.004 170.305,324.67 168.5,319.5C 167.824,318.398 167.158,317.398 166.5,316.5C 168.869,310.143 170.869,303.643 172.5,297C 174.833,296.333 177.167,296.333 179.5,297C 186.767,299.486 194.1,301.652 201.5,303.5 Z"/></g>
<g><path style="opacity:1" fill="#da3c40" d="M 163.5,332.5 C 163.5,334.5 163.5,336.5 163.5,338.5C 181.674,338.17 199.674,338.503 217.5,339.5C 199.167,339.5 180.833,339.5 162.5,339.5C 162.198,336.941 162.532,334.607 163.5,332.5 Z"/></g>
<g><path style="opacity:1" fill="#753f69" d="M 535.5,333.5 C 536.461,335.265 536.795,337.265 536.5,339.5C 517.5,339.5 498.5,339.5 479.5,339.5C 497.993,338.503 516.659,338.17 535.5,338.5C 535.5,336.833 535.5,335.167 535.5,333.5 Z"/></g>
<g><path style="opacity:1" fill="#f9e6f7" d="M 479.5,339.5 C 498.5,339.5 517.5,339.5 536.5,339.5C 536.389,340.117 536.056,340.617 535.5,341C 517.17,341.5 498.836,341.667 480.5,341.5C 480.657,342.873 480.49,344.207 480,345.5C 478.325,346.595 477.158,348.095 476.5,350C 477.833,351.333 477.833,352.667 476.5,354C 478.184,355.209 479.517,356.709 480.5,358.5C 474.936,355.936 473.102,351.603 475,345.5C 476.332,343.34 477.832,341.34 479.5,339.5 Z"/></g>
<g><path style="opacity:1" fill="#d32d29" d="M 218.5,339.5 C 219.873,339.343 221.207,339.51 222.5,340C 227.572,346.445 227.572,352.945 222.5,359.5C 221.167,359.5 219.833,359.5 218.5,359.5C 218.5,359.167 218.5,358.833 218.5,358.5C 223.915,355.449 225.748,350.782 224,344.5C 222.188,342.7 220.355,341.033 218.5,339.5 Z"/></g>
<g><path style="opacity:1" fill="#fdbfb4" d="M 218.5,358.5 C 218.5,358.833 218.5,359.167 218.5,359.5C 200.167,359.5 181.833,359.5 163.5,359.5C 163.5,362.5 163.5,365.5 163.5,368.5C 162.521,365.375 162.187,362.042 162.5,358.5C 181.167,358.5 199.833,358.5 218.5,358.5 Z"/></g>
<g><path style="opacity:1" fill="#d22d30" d="M 218.5,359.5 C 200.674,360.497 182.674,360.83 164.5,360.5C 164.5,365.167 164.5,369.833 164.5,374.5C 163.539,372.735 163.205,370.735 163.5,368.5C 163.5,365.5 163.5,362.5 163.5,359.5C 181.833,359.5 200.167,359.5 218.5,359.5 Z"/></g>
<g><path style="opacity:1" fill="#fb0102" d="M 224.5,386.5 C 218.675,388.584 213.008,390.917 207.5,393.5C 206.791,394.404 205.791,394.737 204.5,394.5C 199.625,394.369 195.625,396.036 192.5,399.5C 192.167,399.5 191.833,399.5 191.5,399.5C 186.426,399.721 181.759,401.054 177.5,403.5C 175.533,403.739 173.699,403.406 172,402.5C 170.309,397.601 169.143,392.601 168.5,387.5C 168.5,386.5 168.5,385.5 168.5,384.5C 169.833,384.5 171.167,384.5 172.5,384.5C 172.664,381.813 172.497,379.146 172,376.5C 170.28,371.703 168.447,367.036 166.5,362.5C 168.167,362.5 169.833,362.5 171.5,362.5C 171.121,366.576 172.121,370.243 174.5,373.5C 175.268,369.8 175.268,366.3 174.5,363C 185.495,362.5 196.495,362.333 207.5,362.5C 207.5,363.5 207.5,364.5 207.5,365.5C 209.942,365.646 210.609,364.813 209.5,363C 213.558,362.233 217.558,362.4 221.5,363.5C 222.604,362.369 222.271,361.535 220.5,361C 221.416,360.722 222.082,360.222 222.5,359.5C 224.451,359.773 225.951,359.107 227,357.5C 228.757,361.003 230.591,364.336 232.5,367.5C 231.5,367.5 230.5,367.5 229.5,367.5C 229.567,372.636 228.9,377.636 227.5,382.5C 222.894,382.051 221.894,383.384 224.5,386.5 Z"/></g>
<g><path style="opacity:1" fill="#672459" d="M 479.5,339.5 C 477.832,341.34 476.332,343.34 475,345.5C 473.102,351.603 474.936,355.936 480.5,358.5C 498.659,359.497 516.992,359.83 535.5,359.5C 535.684,367.588 535.018,375.588 533.5,383.5C 532.982,386.979 531.982,390.312 530.5,393.5C 530.334,387.491 530.501,381.491 531,375.5C 532.78,370.619 533.946,365.619 534.5,360.5C 515.83,360.667 497.164,360.5 478.5,360C 474.126,357.081 472.126,353.248 472.5,348.5C 472.712,343.702 475.045,340.702 479.5,339.5 Z"/></g>
<g><path style="opacity:1" fill="#f1050a" d="M 218.5,359.5 C 219.833,359.5 221.167,359.5 222.5,359.5C 222.082,360.222 221.416,360.722 220.5,361C 222.271,361.535 222.604,362.369 221.5,363.5C 217.558,362.4 213.558,362.233 209.5,363C 210.609,364.813 209.942,365.646 207.5,365.5C 207.5,364.5 207.5,363.5 207.5,362.5C 196.495,362.333 185.495,362.5 174.5,363C 175.268,366.3 175.268,369.8 174.5,373.5C 172.121,370.243 171.121,366.576 171.5,362.5C 169.833,362.5 168.167,362.5 166.5,362.5C 168.447,367.036 170.28,371.703 172,376.5C 172.497,379.146 172.664,381.813 172.5,384.5C 171.167,384.5 169.833,384.5 168.5,384.5C 168.5,385.5 168.5,386.5 168.5,387.5C 167.494,383.274 166.16,379.274 164.5,375.5C 164.5,375.167 164.5,374.833 164.5,374.5C 164.5,369.833 164.5,365.167 164.5,360.5C 182.674,360.83 200.674,360.497 218.5,359.5 Z"/></g>
<g><path style="opacity:1" fill="#771361" d="M 530.5,302.5 C 533.715,312.547 535.382,322.88 535.5,333.5C 535.5,335.167 535.5,336.833 535.5,338.5C 516.659,338.17 497.993,338.503 479.5,339.5C 475.045,340.702 472.712,343.702 472.5,348.5C 472.126,353.248 474.126,357.081 478.5,360C 497.164,360.5 515.83,360.667 534.5,360.5C 533.946,365.619 532.78,370.619 531,375.5C 530.501,381.491 530.334,387.491 530.5,393.5C 530.167,395.5 529.833,397.5 529.5,399.5C 528.022,400.97 526.689,402.637 525.5,404.5C 517.704,400.369 509.038,397.702 499.5,396.5C 497.883,395.962 496.216,395.629 494.5,395.5C 493.657,393.827 492.324,392.66 490.5,392C 481.813,389.089 473.147,386.256 464.5,383.5C 464.842,372.139 465.508,360.806 466.5,349.5C 466.499,344.654 466.166,339.988 465.5,335.5C 464.097,332.091 463.43,328.425 463.5,324.5C 463.425,321.794 463.092,319.127 462.5,316.5C 468.386,315.945 474.053,314.611 479.5,312.5C 479.5,311.5 479.5,310.5 479.5,309.5C 484.815,309.07 489.815,307.57 494.5,305C 498.211,304.825 501.878,304.325 505.5,303.5C 507.122,301.561 508.956,301.228 511,302.5C 515.891,301.096 520.724,299.43 525.5,297.5C 526.442,297.608 527.275,297.941 528,298.5C 528.2,300.32 529.034,301.653 530.5,302.5 Z"/></g>
<g><path style="opacity:1" fill="#d44b41" d="M 233.5,337.5 C 233.833,337.5 234.167,337.5 234.5,337.5C 234.5,342.167 234.5,346.833 234.5,351.5C 234.403,361.683 235.736,371.683 238.5,381.5C 238.281,383.915 236.948,384.915 234.5,384.5C 235.53,383.448 236.197,382.114 236.5,380.5C 235.358,376.571 234.524,372.571 234,368.5C 233.5,358.172 233.334,347.839 233.5,337.5 Z"/></g>
<g><path style="opacity:1" fill="#feebe2" d="M 234.5,351.5 C 236.194,359.015 238.027,366.682 240,374.5C 240.667,378.5 240.667,382.5 240,386.5C 232.359,387.396 224.859,389.062 217.5,391.5C 222.167,389.5 226.833,387.5 231.5,385.5C 232.791,385.737 233.791,385.404 234.5,384.5C 236.948,384.915 238.281,383.915 238.5,381.5C 235.736,371.683 234.403,361.683 234.5,351.5 Z"/></g>
<g><path style="opacity:1" fill="#cc2e29" d="M 164.5,375.5 C 166.16,379.274 167.494,383.274 168.5,387.5C 169.143,392.601 170.309,397.601 172,402.5C 173.699,403.406 175.533,403.739 177.5,403.5C 175.799,405.423 173.799,405.757 171.5,404.5C 170.67,401.984 169.67,399.65 168.5,397.5C 167.162,390.153 165.829,382.82 164.5,375.5 Z"/></g>
<g><path style="opacity:1" fill="#692658" d="M 465.5,335.5 C 466.166,339.988 466.499,344.654 466.5,349.5C 465.508,360.806 464.842,372.139 464.5,383.5C 473.147,386.256 481.813,389.089 490.5,392C 492.324,392.66 493.657,393.827 494.5,395.5C 483.087,392.188 471.921,388.188 461,383.5C 462.212,375.585 463.379,367.585 464.5,359.5C 465.492,351.684 465.826,343.684 465.5,335.5 Z"/></g>
<g><path style="opacity:1" fill="#cf2e28" d="M 231.5,385.5 C 226.833,387.5 222.167,389.5 217.5,391.5C 215.883,392.038 214.216,392.371 212.5,392.5C 210.883,393.038 209.216,393.371 207.5,393.5C 213.008,390.917 218.675,388.584 224.5,386.5C 226.806,386.007 229.139,385.674 231.5,385.5 Z"/></g>
<g><path style="opacity:1" fill="#cd2b26" d="M 204.5,394.5 C 200.739,396.538 196.739,398.204 192.5,399.5C 195.625,396.036 199.625,394.369 204.5,394.5 Z"/></g>
<g><path style="opacity:1" fill="#ffe1da" d="M 212.5,392.5 C 207.768,394.703 203.101,397.203 198.5,400C 194.206,401.143 189.873,401.977 185.5,402.5C 187.5,401.5 189.5,400.5 191.5,399.5C 191.833,399.5 192.167,399.5 192.5,399.5C 196.739,398.204 200.739,396.538 204.5,394.5C 205.791,394.737 206.791,394.404 207.5,393.5C 209.216,393.371 210.883,393.038 212.5,392.5 Z"/></g>
<g><path style="opacity:1" fill="#6b2855" d="M 499.5,396.5 C 509.038,397.702 517.704,400.369 525.5,404.5C 526.689,402.637 528.022,400.97 529.5,399.5C 529.082,402.09 528.082,404.423 526.5,406.5C 523.273,405.091 519.94,404.091 516.5,403.5C 511.005,400.712 505.338,398.378 499.5,396.5 Z"/></g>
<g><path style="opacity:1" fill="#d43a34" d="M 191.5,399.5 C 189.5,400.5 187.5,401.5 185.5,402.5C 185.167,402.5 184.833,402.5 184.5,402.5C 182.139,402.674 179.806,403.007 177.5,403.5C 181.759,401.054 186.426,399.721 191.5,399.5 Z"/></g>
<g><path style="opacity:1" fill="#fbd0cb" d="M 168.5,397.5 C 169.67,399.65 170.67,401.984 171.5,404.5C 173.799,405.757 175.799,405.423 177.5,403.5C 179.806,403.007 182.139,402.674 184.5,402.5C 182.06,404.862 179.06,406.529 175.5,407.5C 169.758,406.71 167.424,403.377 168.5,397.5 Z"/></g>
<g><path style="opacity:1" fill="#f8eaf6" d="M 533.5,383.5 C 535.272,388.671 534.438,393.337 531,397.5C 530.076,401.296 529.742,404.962 530,408.5C 529.667,408.833 529.333,409.167 529,409.5C 525.871,408.87 522.704,408.204 519.5,407.5C 518.174,406.358 517.174,405.024 516.5,403.5C 519.94,404.091 523.273,405.091 526.5,406.5C 528.082,404.423 529.082,402.09 529.5,399.5C 529.833,397.5 530.167,395.5 530.5,393.5C 531.982,390.312 532.982,386.979 533.5,383.5 Z"/></g>
<g><path style="opacity:1" fill="#a4c678" d="M 453.5,403.5 C 454.167,404.167 454.833,404.833 455.5,405.5C 454.167,405.5 452.833,405.5 451.5,405.5C 451.657,408.344 450.324,410.011 447.5,410.5C 448.366,407.046 450.366,404.712 453.5,403.5 Z"/></g>
<g><path style="opacity:1" fill="#f8fcdf" d="M 453.5,403.5 C 450.366,404.712 448.366,407.046 447.5,410.5C 446.692,412.22 445.692,413.887 444.5,415.5C 443.833,415.833 443.167,416.167 442.5,416.5C 441.887,412.393 443.387,409.393 447,407.5C 447.494,405.866 447.66,404.199 447.5,402.5C 449.735,402.205 451.735,402.539 453.5,403.5 Z"/></g>
<g><path style="opacity:1" fill="#a6b96f" d="M 447.5,410.5 C 447.5,412.167 447.5,413.833 447.5,415.5C 446.5,415.5 445.5,415.5 444.5,415.5C 445.692,413.887 446.692,412.22 447.5,410.5 Z"/></g>
<g><path style="opacity:1" fill="#eef9d8" d="M 460.5,407.5 C 464.596,406.715 467.93,407.882 470.5,411C 473.876,410.816 476.543,411.983 478.5,414.5C 481.885,414.833 484.552,416.333 486.5,419C 489.233,419.758 491.733,419.258 494,417.5C 494.5,417.833 495,418.167 495.5,418.5C 494.129,421.326 495.129,422.826 498.5,423C 499.743,424.154 500.743,425.488 501.5,427C 503.81,427.497 506.143,427.663 508.5,427.5C 508.433,428.959 508.766,430.292 509.5,431.5C 502.917,428.889 496.584,425.889 490.5,422.5C 480.246,417.869 470.246,412.869 460.5,407.5 Z"/></g>
<g><path style="opacity:1" fill="#9dc166" d="M 444.5,415.5 C 444.019,418.455 442.519,420.789 440,422.5C 439.506,424.134 439.34,425.801 439.5,427.5C 437.516,427.383 435.85,428.05 434.5,429.5C 431.299,432.202 428.632,435.369 426.5,439C 425.552,439.483 424.552,439.649 423.5,439.5C 423.833,438.833 424.167,438.167 424.5,437.5C 431.903,431.759 437.903,424.759 442.5,416.5C 443.167,416.167 443.833,415.833 444.5,415.5 Z"/></g>
<g><path style="opacity:1" fill="#e0f3be" d="M 510.5,431.5 C 516.192,431.644 517.858,434.311 515.5,439.5C 514.148,440.524 512.815,441.524 511.5,442.5C 512.855,439.821 514.189,437.154 515.5,434.5C 513.067,434.727 511.401,433.727 510.5,431.5 Z"/></g>
<g><path style="opacity:1" fill="#8fba42" d="M 490.5,422.5 C 496.584,425.889 502.917,428.889 509.5,431.5C 509.833,431.5 510.167,431.5 510.5,431.5C 511.401,433.727 513.067,434.727 515.5,434.5C 514.189,437.154 512.855,439.821 511.5,442.5C 511.5,442.833 511.5,443.167 511.5,443.5C 510.527,445.139 509.194,446.473 507.5,447.5C 507.275,445.284 508.108,443.617 510,442.5C 510.667,440.833 510.667,439.167 510,437.5C 508.383,436.149 507.216,434.482 506.5,432.5C 501.424,429.962 496.424,427.462 491.5,425C 490.748,424.329 490.414,423.496 490.5,422.5 Z"/></g>
<g><path style="opacity:1" fill="#85c128" d="M 455.5,405.5 C 457.284,405.893 458.95,406.559 460.5,407.5C 470.246,412.869 480.246,417.869 490.5,422.5C 490.414,423.496 490.748,424.329 491.5,425C 496.424,427.462 501.424,429.962 506.5,432.5C 507.216,434.482 508.383,436.149 510,437.5C 510.667,439.167 510.667,440.833 510,442.5C 508.108,443.617 507.275,445.284 507.5,447.5C 504.331,454.662 499.998,460.995 494.5,466.5C 492.226,467.597 490.059,468.93 488,470.5C 486.862,470.011 485.695,469.678 484.5,469.5C 478.833,464.5 473.5,459.167 468.5,453.5C 468.328,451.508 468.995,449.842 470.5,448.5C 468.647,447.24 466.814,447.24 465,448.5C 462.048,446.807 461.882,444.974 464.5,443C 463.007,441.632 461.507,441.465 460,442.5C 458.011,440.161 455.511,438.827 452.5,438.5C 452.035,434.089 449.535,432.422 445,433.5C 440.528,432.988 437.195,434.655 435,438.5C 433.659,449.811 438.159,458.144 448.5,463.5C 448.833,463.5 449.167,463.5 449.5,463.5C 449.238,464.978 449.571,466.311 450.5,467.5C 458.112,473.61 464.779,480.443 470.5,488C 468.963,490.038 467.63,492.205 466.5,494.5C 465.791,495.404 464.791,495.737 463.5,495.5C 463.719,496.675 463.386,497.675 462.5,498.5C 459.508,500.171 456.841,502.171 454.5,504.5C 449.657,506.418 445.323,509.084 441.5,512.5C 437.217,514.194 434.217,512.861 432.5,508.5C 430.776,501.897 428.609,495.564 426,489.5C 425,488.833 424,488.167 423,487.5C 424.068,480.743 421.734,475.743 416,472.5C 415.265,470.129 414.432,467.795 413.5,465.5C 412.423,464.295 411.09,463.628 409.5,463.5C 409.653,460.423 408.986,457.589 407.5,455C 408.522,452.83 409.522,450.664 410.5,448.5C 412.167,448.5 413.833,448.5 415.5,448.5C 415.5,447.167 415.5,445.833 415.5,444.5C 417.922,443.915 419.589,442.415 420.5,440C 421.448,439.517 422.448,439.351 423.5,439.5C 424.552,439.649 425.552,439.483 426.5,439C 428.632,435.369 431.299,432.202 434.5,429.5C 435.85,428.05 437.516,427.383 439.5,427.5C 439.34,425.801 439.506,424.134 440,422.5C 442.519,420.789 444.019,418.455 444.5,415.5C 445.5,415.5 446.5,415.5 447.5,415.5C 447.5,413.833 447.5,412.167 447.5,410.5C 450.324,410.011 451.657,408.344 451.5,405.5C 452.833,405.5 454.167,405.5 455.5,405.5 Z"/></g>
<g><path style="opacity:1" fill="#9bc25d" d="M 452.5,438.5 C 450.456,437.969 448.789,436.802 447.5,435C 441.893,433.071 438.56,434.905 437.5,440.5C 436.883,440.611 436.383,440.944 436,441.5C 434.812,445.741 435.645,449.408 438.5,452.5C 441.167,455.833 444.167,458.833 447.5,461.5C 447.833,462.167 448.167,462.833 448.5,463.5C 438.159,458.144 433.659,449.811 435,438.5C 437.195,434.655 440.528,432.988 445,433.5C 449.535,432.422 452.035,434.089 452.5,438.5 Z"/></g>
<g><path style="opacity:1" fill="#f1fbda" d="M 452.5,438.5 C 457.151,442.154 461.151,446.488 464.5,451.5C 462.801,451.66 461.134,451.494 459.5,451C 458.368,447.9 456.868,445.066 455,442.5C 449.718,436.758 443.885,436.091 437.5,440.5C 438.56,434.905 441.893,433.071 447.5,435C 448.789,436.802 450.456,437.969 452.5,438.5 Z"/></g>
<g><path style="opacity:1" fill="#8dbb41" d="M 452.5,438.5 C 455.511,438.827 458.011,440.161 460,442.5C 461.507,441.465 463.007,441.632 464.5,443C 461.882,444.974 462.048,446.807 465,448.5C 466.814,447.24 468.647,447.24 470.5,448.5C 468.995,449.842 468.328,451.508 468.5,453.5C 467.609,452.89 466.609,452.557 465.5,452.5C 465.5,451.833 465.167,451.5 464.5,451.5C 461.151,446.488 457.151,442.154 452.5,438.5 Z"/></g>
<g><path style="opacity:1" fill="#7f7f7f" d="M 245.5,403.5 C 250.133,408.661 254.3,414.328 258,420.5C 268.858,433.199 281.358,443.865 295.5,452.5C 285.164,473.841 274.33,494.841 263,515.5C 249.155,508.331 236.655,499.331 225.5,488.5C 237.288,475.89 249.288,463.556 261.5,451.5C 266.315,444.571 264.981,439.071 257.5,435C 255.167,434.333 252.833,434.333 250.5,435C 237.015,447.651 223.682,460.485 210.5,473.5C 199.544,462.268 190.544,449.601 183.5,435.5C 204.099,424.866 224.766,414.199 245.5,403.5 Z"/></g>
<g><path style="opacity:1" fill="#f1f9d6" d="M 424.5,437.5 C 424.167,438.167 423.833,438.833 423.5,439.5C 422.448,439.351 421.448,439.517 420.5,440C 419.589,442.415 417.922,443.915 415.5,444.5C 411.61,446.219 408.11,448.552 405,451.5C 404.51,452.793 404.343,454.127 404.5,455.5C 402.777,453.22 402.111,450.553 402.5,447.5C 405.864,448.211 408.197,447.044 409.5,444C 412.044,442.908 414.711,442.241 417.5,442C 418.337,440.989 418.67,439.822 418.5,438.5C 420.5,438.167 422.5,437.833 424.5,437.5 Z"/></g>
<g><path style="opacity:1" fill="#97bb53" d="M 415.5,444.5 C 415.5,445.833 415.5,447.167 415.5,448.5C 413.833,448.5 412.167,448.5 410.5,448.5C 409.522,450.664 408.522,452.83 407.5,455C 408.986,457.589 409.653,460.423 409.5,463.5C 409.167,463.5 408.833,463.5 408.5,463.5C 408.975,460.687 407.975,458.687 405.5,457.5C 405.672,456.508 405.338,455.842 404.5,455.5C 404.343,454.127 404.51,452.793 405,451.5C 408.11,448.552 411.61,446.219 415.5,444.5 Z"/></g>
<g><path style="opacity:1" fill="#d4eba8" d="M 438.5,452.5 C 442.5,454.5 445.5,457.5 447.5,461.5C 444.167,458.833 441.167,455.833 438.5,452.5 Z"/></g>
<g><path style="opacity:1" fill="#f3fcdd" d="M 437.5,440.5 C 437.337,442.857 437.503,445.19 438,447.5C 441.175,450.343 444.009,453.51 446.5,457C 448.221,457.739 449.887,458.573 451.5,459.5C 453.289,463.422 455.289,467.089 457.5,470.5C 460.142,470.488 461.475,471.821 461.5,474.5C 456.815,471.478 452.815,467.811 449.5,463.5C 449.167,463.5 448.833,463.5 448.5,463.5C 448.167,462.833 447.833,462.167 447.5,461.5C 445.5,457.5 442.5,454.5 438.5,452.5C 435.645,449.408 434.812,445.741 436,441.5C 436.383,440.944 436.883,440.611 437.5,440.5 Z"/></g>
<g><path style="opacity:1" fill="#f3fadf" d="M 511.5,443.5 C 510.715,446.858 509.715,450.191 508.5,453.5C 505.721,455.675 503.554,458.342 502,461.5C 502.155,466.837 499.655,469.837 494.5,470.5C 495.014,472.512 495.18,474.512 495,476.5C 493.75,475.427 492.416,475.427 491,476.5C 485.968,476.208 482.801,473.708 481.5,469C 479.833,468.667 478.167,468.333 476.5,468C 474.135,464.929 472.135,461.596 470.5,458C 469.833,457.833 469.167,457.667 468.5,457.5C 466.952,459.376 464.952,460.376 462.5,460.5C 462.5,459.167 462.5,457.833 462.5,456.5C 463.5,456.5 464.5,456.5 465.5,456.5C 465.5,455.167 465.5,453.833 465.5,452.5C 466.609,452.557 467.609,452.89 468.5,453.5C 473.5,459.167 478.833,464.5 484.5,469.5C 485.479,471.145 486.812,472.479 488.5,473.5C 491.208,471.734 493.208,469.401 494.5,466.5C 499.998,460.995 504.331,454.662 507.5,447.5C 509.194,446.473 510.527,445.139 511.5,443.5 Z"/></g>
<g><path style="opacity:1" fill="#d5eeb2" d="M 405.5,457.5 C 407.975,458.687 408.975,460.687 408.5,463.5C 407.508,461.544 406.508,459.544 405.5,457.5 Z"/></g>
<g><path style="opacity:1" fill="#fdeede" d="M 391.5,479.5 C 391.167,479.5 390.833,479.5 390.5,479.5C 389.071,473.871 387.071,468.537 384.5,463.5C 384.672,462.508 384.338,461.842 383.5,461.5C 382.726,460.853 381.726,460.52 380.5,460.5C 377.059,461.511 373.725,462.511 370.5,463.5C 357.548,465.637 344.548,465.97 331.5,464.5C 326.227,463.247 320.894,462.08 315.5,461C 312.613,466.158 310.613,471.658 309.5,477.5C 308.25,480.006 307.584,482.673 307.5,485.5C 307.167,485.5 306.833,485.5 306.5,485.5C 307.183,481.601 307.35,477.601 307,473.5C 307.26,471.382 308.26,469.716 310,468.5C 308.909,461.303 311.909,457.969 319,458.5C 324.807,459.514 330.307,460.681 335.5,462C 346.833,462.667 358.167,462.667 369.5,462C 373.654,459.217 378.321,457.883 383.5,458C 384.126,457.25 384.626,456.416 385,455.5C 386.204,456.859 387.704,457.859 389.5,458.5C 389.931,459.293 390.265,460.127 390.5,461C 389.152,462.555 388.486,464.389 388.5,466.5C 390.512,470.549 391.512,474.883 391.5,479.5 Z"/></g>
<g><path style="opacity:1" fill="#de7b5a" d="M 331.5,464.5 C 330.167,464.5 328.833,464.5 327.5,464.5C 324.26,464.232 321.094,463.566 318,462.5C 317.127,462.735 316.293,463.069 315.5,463.5C 314.544,468.731 312.544,473.398 309.5,477.5C 310.613,471.658 312.613,466.158 315.5,461C 320.894,462.08 326.227,463.247 331.5,464.5 Z"/></g>
<g><path style="opacity:1" fill="#df9074" d="M 383.5,461.5 C 379.24,462.585 374.906,463.252 370.5,463.5C 373.725,462.511 377.059,461.511 380.5,460.5C 381.726,460.52 382.726,460.853 383.5,461.5 Z"/></g>
<g><path style="opacity:1" fill="#ef673f" d="M 383.5,461.5 C 384.338,461.842 384.672,462.508 384.5,463.5C 384.5,464.833 384.5,466.167 384.5,467.5C 382.952,467.179 382.285,466.179 382.5,464.5C 379.955,464.151 377.955,464.984 376.5,467C 360.17,467.5 343.837,467.667 327.5,467.5C 327.5,466.5 327.5,465.5 327.5,464.5C 328.833,464.5 330.167,464.5 331.5,464.5C 344.548,465.97 357.548,465.637 370.5,463.5C 374.906,463.252 379.24,462.585 383.5,461.5 Z"/></g>
<g><path style="opacity:1" fill="#92b94e" d="M 449.5,463.5 C 452.815,467.811 456.815,471.478 461.5,474.5C 465.132,479.467 469.132,484.133 473.5,488.5C 471.812,490.854 469.812,492.854 467.5,494.5C 467.167,494.5 466.833,494.5 466.5,494.5C 467.63,492.205 468.963,490.038 470.5,488C 464.779,480.443 458.112,473.61 450.5,467.5C 449.571,466.311 449.238,464.978 449.5,463.5 Z"/></g>
<g><path style="opacity:1" fill="#fd6534" d="M 327.5,464.5 C 327.5,465.5 327.5,466.5 327.5,467.5C 343.837,467.667 360.17,467.5 376.5,467C 377.955,464.984 379.955,464.151 382.5,464.5C 382.285,466.179 382.952,467.179 384.5,467.5C 386.299,471.541 388.299,475.541 390.5,479.5C 389.886,485.451 391.553,490.451 395.5,494.5C 395.5,494.833 395.5,495.167 395.5,495.5C 397.434,506.088 400.101,516.422 403.5,526.5C 393.49,528.835 383.49,531.168 373.5,533.5C 369.5,533.5 365.5,533.5 361.5,533.5C 361.667,514.497 361.5,495.497 361,476.5C 360.617,475.944 360.117,475.611 359.5,475.5C 358.391,475.443 357.391,475.11 356.5,474.5C 356.047,473.542 355.381,472.708 354.5,472C 350.833,471.333 347.167,471.333 343.5,472C 340.227,472.94 338.394,475.107 338,478.5C 337.5,496.83 337.333,515.164 337.5,533.5C 330.139,533.044 322.806,532.378 315.5,531.5C 310.577,530.788 305.91,529.455 301.5,527.5C 301.762,526.022 301.429,524.689 300.5,523.5C 299.614,524.325 299.281,525.325 299.5,526.5C 298.167,526.5 296.833,526.5 295.5,526.5C 295.264,523.774 296.097,521.441 298,519.5C 298.497,516.854 298.664,514.187 298.5,511.5C 302.365,507.044 304.032,501.711 303.5,495.5C 305.897,492.691 307.23,489.358 307.5,485.5C 307.584,482.673 308.25,480.006 309.5,477.5C 312.544,473.398 314.544,468.731 315.5,463.5C 316.293,463.069 317.127,462.735 318,462.5C 321.094,463.566 324.26,464.232 327.5,464.5 Z"/></g>
<g><path style="opacity:1" fill="#92b24f" d="M 494.5,466.5 C 493.208,469.401 491.208,471.734 488.5,473.5C 486.812,472.479 485.479,471.145 484.5,469.5C 485.695,469.678 486.862,470.011 488,470.5C 490.059,468.93 492.226,467.597 494.5,466.5 Z"/></g>
<g><path style="opacity:1" fill="#e9f7cb" d="M 408.5,463.5 C 408.833,463.5 409.167,463.5 409.5,463.5C 412.249,467.511 414.249,471.844 415.5,476.5C 411.083,473.386 408.75,469.052 408.5,463.5 Z"/></g>
<g><path style="opacity:1" fill="#df8463" d="M 384.5,463.5 C 387.071,468.537 389.071,473.871 390.5,479.5C 388.299,475.541 386.299,471.541 384.5,467.5C 384.5,466.167 384.5,464.833 384.5,463.5 Z"/></g>
<g><path style="opacity:1" fill="#8dbb3f" d="M 409.5,463.5 C 411.09,463.628 412.423,464.295 413.5,465.5C 414.432,467.795 415.265,470.129 416,472.5C 421.734,475.743 424.068,480.743 423,487.5C 424,488.167 425,488.833 426,489.5C 428.609,495.564 430.776,501.897 432.5,508.5C 432.167,508.5 431.833,508.5 431.5,508.5C 428.798,503.097 426.132,497.763 423.5,492.5C 420.837,487.245 418.17,481.911 415.5,476.5C 414.249,471.844 412.249,467.511 409.5,463.5 Z"/></g>
<g><path style="opacity:1" fill="#f5fbe9" d="M 461.5,474.5 C 466.061,474.56 468.561,476.893 469,481.5C 470.826,483.074 472.993,483.907 475.5,484C 476.022,484.561 476.355,485.228 476.5,486C 476.316,489.057 476.316,492.057 476.5,495C 475.197,495.21 473.864,495.043 472.5,494.5C 470.843,496.517 469.176,498.684 467.5,501C 465.527,501.495 463.527,501.662 461.5,501.5C 464.213,499.786 466.213,497.453 467.5,494.5C 469.812,492.854 471.812,490.854 473.5,488.5C 469.132,484.133 465.132,479.467 461.5,474.5 Z"/></g>
<g><path style="opacity:1" fill="#dd815f" d="M 390.5,479.5 C 390.833,479.5 391.167,479.5 391.5,479.5C 391.629,481.216 391.962,482.883 392.5,484.5C 393.492,487.823 394.492,491.156 395.5,494.5C 391.553,490.451 389.886,485.451 390.5,479.5 Z"/></g>
<g><path style="opacity:1" fill="#d7805f" d="M 306.5,485.5 C 306.833,485.5 307.167,485.5 307.5,485.5C 307.23,489.358 305.897,492.691 303.5,495.5C 304.099,492.037 305.099,488.704 306.5,485.5 Z"/></g>
<g><path style="opacity:1" fill="#feebdd" d="M 392.5,484.5 C 394.504,485.673 396.004,487.34 397,489.5C 399.183,499.615 401.683,509.615 404.5,519.5C 401.254,511.645 398.254,503.645 395.5,495.5C 395.5,495.167 395.5,494.833 395.5,494.5C 394.492,491.156 393.492,487.823 392.5,484.5 Z"/></g>
<g><path style="opacity:1" fill="#ea6942" d="M 359.5,475.5 C 360.117,475.611 360.617,475.944 361,476.5C 361.5,495.497 361.667,514.497 361.5,533.5C 365.5,533.5 369.5,533.5 373.5,533.5C 373.5,533.833 373.5,534.167 373.5,534.5C 373.167,534.5 372.833,534.5 372.5,534.5C 368.5,534.5 364.5,534.5 360.5,534.5C 360.797,514.8 360.464,495.133 359.5,475.5 Z"/></g>
<g><path style="opacity:1" fill="#ef6643" d="M 356.5,474.5 C 355.5,474.5 354.5,474.5 353.5,474.5C 350.813,474.336 348.146,474.503 345.5,475C 343.599,476.639 341.599,478.139 339.5,479.5C 338.833,497.5 338.167,515.5 337.5,533.5C 337.333,515.164 337.5,496.83 338,478.5C 338.394,475.107 340.227,472.94 343.5,472C 347.167,471.333 350.833,471.333 354.5,472C 355.381,472.708 356.047,473.542 356.5,474.5 Z"/></g>
<g><path style="opacity:1" fill="#fde2ca" d="M 353.5,474.5 C 355.355,476.033 357.188,477.7 359,479.5C 359.5,498.164 359.667,516.83 359.5,535.5C 358.668,517.338 358.168,499.005 358,480.5C 355.091,479.295 352.258,477.962 349.5,476.5C 347.022,478.45 344.189,479.784 341,480.5C 340.5,499.164 340.333,517.83 340.5,536.5C 336.629,536.815 332.962,536.482 329.5,535.5C 332.833,535.5 336.167,535.5 339.5,535.5C 339.5,516.833 339.5,498.167 339.5,479.5C 341.599,478.139 343.599,476.639 345.5,475C 348.146,474.503 350.813,474.336 353.5,474.5 Z"/></g>
<g><path style="opacity:1" fill="#de7d60" d="M 353.5,474.5 C 354.5,474.5 355.5,474.5 356.5,474.5C 357.391,475.11 358.391,475.443 359.5,475.5C 360.464,495.133 360.797,514.8 360.5,534.5C 364.5,534.5 368.5,534.5 372.5,534.5C 372.5,534.833 372.5,535.167 372.5,535.5C 368.167,535.5 363.833,535.5 359.5,535.5C 359.667,516.83 359.5,498.164 359,479.5C 357.188,477.7 355.355,476.033 353.5,474.5 Z"/></g>
<g><path style="opacity:1" fill="#ecf8cf" d="M 423.5,492.5 C 426.132,497.763 428.798,503.097 431.5,508.5C 430.178,508.67 429.011,508.337 428,507.5C 428.121,504.079 426.788,501.412 424,499.5C 423.503,497.19 423.337,494.857 423.5,492.5 Z"/></g>
<g><path style="opacity:1" fill="#dd765a" d="M 339.5,479.5 C 339.5,498.167 339.5,516.833 339.5,535.5C 336.167,535.5 332.833,535.5 329.5,535.5C 326.941,535.802 324.607,535.468 322.5,534.5C 327.695,534.821 332.695,534.487 337.5,533.5C 338.167,515.5 338.833,497.5 339.5,479.5 Z"/></g>
<g><path style="opacity:1" fill="#e8f6c9" d="M 466.5,494.5 C 466.833,494.5 467.167,494.5 467.5,494.5C 466.213,497.453 464.213,499.786 461.5,501.5C 459.824,503.834 457.491,504.834 454.5,504.5C 456.841,502.171 459.508,500.171 462.5,498.5C 463.386,497.675 463.719,496.675 463.5,495.5C 464.791,495.737 465.791,495.404 466.5,494.5 Z"/></g>
<g><path style="opacity:1" fill="#e17e5c" d="M 303.5,495.5 C 304.032,501.711 302.365,507.044 298.5,511.5C 299.258,505.775 300.925,500.441 303.5,495.5 Z"/></g>
<g><path style="opacity:1" fill="#b9d589" d="M 431.5,508.5 C 431.833,508.5 432.167,508.5 432.5,508.5C 434.217,512.861 437.217,514.194 441.5,512.5C 439.967,514.245 437.967,515.245 435.5,515.5C 433.058,513.879 431.725,511.546 431.5,508.5 Z"/></g>
<g><path style="opacity:1" fill="#e0774f" d="M 395.5,495.5 C 398.254,503.645 401.254,511.645 404.5,519.5C 405.679,522.371 405.679,525.204 404.5,528C 394.277,530.675 383.943,532.842 373.5,534.5C 373.5,534.167 373.5,533.833 373.5,533.5C 383.49,531.168 393.49,528.835 403.5,526.5C 400.101,516.422 397.434,506.088 395.5,495.5 Z"/></g>
<g><path style="opacity:1" fill="#f0fbd5" d="M 454.5,504.5 C 454.52,506.143 453.853,507.476 452.5,508.5C 446.91,510.578 441.91,513.578 437.5,517.5C 436.287,517.253 435.62,516.586 435.5,515.5C 437.967,515.245 439.967,514.245 441.5,512.5C 445.323,509.084 449.657,506.418 454.5,504.5 Z"/></g>
<g><path style="opacity:1" fill="#e96f43" d="M 298.5,511.5 C 298.664,514.187 298.497,516.854 298,519.5C 296.097,521.441 295.264,523.774 295.5,526.5C 296.833,526.5 298.167,526.5 299.5,526.5C 299.281,525.325 299.614,524.325 300.5,523.5C 301.429,524.689 301.762,526.022 301.5,527.5C 299.167,527.5 296.833,527.5 294.5,527.5C 294.5,525.5 294.5,523.5 294.5,521.5C 295.578,518.598 296.244,515.598 296.5,512.5C 297.167,512.167 297.833,511.833 298.5,511.5 Z"/></g>
<g><path style="opacity:1" fill="#db7e5b" d="M 294.5,521.5 C 294.5,523.5 294.5,525.5 294.5,527.5C 296.833,527.5 299.167,527.5 301.5,527.5C 305.91,529.455 310.577,530.788 315.5,531.5C 316.167,532.167 316.833,532.833 317.5,533.5C 309.296,532.569 301.296,530.903 293.5,528.5C 293.198,525.941 293.532,523.607 294.5,521.5 Z"/></g>
<g><path style="opacity:1" fill="#fdebd8" d="M 404.5,519.5 C 405.496,519.414 406.329,519.748 407,520.5C 407.929,524.244 407.429,527.744 405.5,531C 400.01,531.782 394.676,533.116 389.5,535C 383.843,535.499 378.176,535.666 372.5,535.5C 372.5,535.167 372.5,534.833 372.5,534.5C 372.833,534.5 373.167,534.5 373.5,534.5C 383.943,532.842 394.277,530.675 404.5,528C 405.679,525.204 405.679,522.371 404.5,519.5 Z"/></g>
<g><path style="opacity:1" fill="#fdf4e6" d="M 296.5,512.5 C 296.244,515.598 295.578,518.598 294.5,521.5C 293.532,523.607 293.198,525.941 293.5,528.5C 301.296,530.903 309.296,532.569 317.5,533.5C 319.117,534.038 320.784,534.371 322.5,534.5C 324.607,535.468 326.941,535.802 329.5,535.5C 332.962,536.482 336.629,536.815 340.5,536.5C 339.6,541.203 337.6,542.036 334.5,539C 321.579,536.427 308.579,534.427 295.5,533C 293.026,530.959 292.026,528.292 292.5,525C 292.588,520.35 293.922,516.183 296.5,512.5 Z"/></g>
<g><path style="opacity:1" fill="#ec6b46" d="M 315.5,531.5 C 322.806,532.378 330.139,533.044 337.5,533.5C 332.695,534.487 327.695,534.821 322.5,534.5C 320.784,534.371 319.117,534.038 317.5,533.5C 316.833,532.833 316.167,532.167 315.5,531.5 Z"/></g>
<g><path style="opacity:1" fill="#f4f4f4" d="M 620.5,643.5 C 622.044,643.703 623.378,644.37 624.5,645.5C 629.311,643.515 634.311,643.015 639.5,644C 640,644.5 640.5,645 641,645.5C 641.333,651.167 641.667,656.833 642,662.5C 643.167,660.833 644.333,659.167 645.5,657.5C 643.73,652.575 644.397,648.075 647.5,644C 654.524,643.169 661.524,643.336 668.5,644.5C 669.167,648.5 669.833,652.5 670.5,656.5C 667.972,658.505 668.305,660.171 671.5,661.5C 668.282,662.423 665.282,661.757 662.5,659.5C 660.976,663.283 659.976,667.283 659.5,671.5C 658.675,667.878 658.175,664.211 658,660.5C 657.586,660.043 657.086,659.709 656.5,659.5C 656.115,663.173 655.115,667.006 653.5,671C 651.382,671.635 649.382,672.469 647.5,673.5C 646.833,673.167 646.167,672.833 645.5,672.5C 646.981,671.52 648.315,670.353 649.5,669C 647.208,670.101 645.708,669.268 645,666.5C 643.55,668.757 642.383,671.09 641.5,673.5C 637.316,674.296 634.15,672.963 632,669.5C 628.33,673.415 624.163,674.248 619.5,672C 620.3,667.92 620.8,663.753 621,659.5C 621.69,656.474 622.857,653.641 624.5,651C 621.634,649.304 620.3,646.804 620.5,643.5 Z"/></g>
<g><path style="opacity:1" fill="#efefef" d="M 607.5,643.5 C 609.167,643.5 610.833,643.5 612.5,643.5C 612.5,644.5 612.5,645.5 612.5,646.5C 609.126,645.486 605.793,645.819 602.5,647.5C 602.415,655.891 600.749,663.891 597.5,671.5C 596.914,671.291 596.414,670.957 596,670.5C 592.89,675.038 589.39,675.038 585.5,670.5C 585.015,667.486 584.681,664.486 584.5,661.5C 586.743,660.526 589.076,660.192 591.5,660.5C 591.665,663.518 591.498,666.518 591,669.5C 590.5,670 590,670.5 589.5,671C 590.793,671.49 592.127,671.657 593.5,671.5C 593.177,667.774 593.511,664.107 594.5,660.5C 596.071,661.309 597.738,661.643 599.5,661.5C 599.66,659.801 599.494,658.134 599,656.5C 597.951,658.107 596.451,658.773 594.5,658.5C 594.5,657.5 594.5,656.5 594.5,655.5C 596.288,655.785 597.955,655.452 599.5,654.5C 598.624,653.749 597.624,653.249 596.5,653C 597.609,651.187 596.942,650.354 594.5,650.5C 594.5,651.833 594.5,653.167 594.5,654.5C 592.801,654.34 591.134,654.506 589.5,655C 590.448,655.483 591.448,655.649 592.5,655.5C 592.5,656.833 592.5,658.167 592.5,659.5C 589.753,659.813 587.086,659.48 584.5,658.5C 585.711,657.28 585.711,656.113 584.5,655C 585.167,653 585.833,651 586.5,649C 590.869,649.27 595.202,649.104 599.5,648.5C 597.604,647.534 595.604,647.201 593.5,647.5C 593.5,646.5 593.5,645.5 593.5,644.5C 598.252,645.488 602.918,645.155 607.5,643.5 Z"/></g>
<g><path style="opacity:1" fill="#f4f4f4" d="M 487.5,641.5 C 491.69,641.706 495.69,641.873 499.5,642C 501.275,643.439 503.275,644.439 505.5,645C 507.322,647.821 509.489,650.321 512,652.5C 512.507,651.004 512.007,649.837 510.5,649C 513.594,648.529 515.261,646.696 515.5,643.5C 516.474,645.743 516.808,648.076 516.5,650.5C 512.5,651.167 512.5,651.833 516.5,652.5C 516.171,658.537 516.504,664.537 517.5,670.5C 518.489,666.893 518.823,663.226 518.5,659.5C 521.049,658.491 523.715,657.658 526.5,657C 524.101,656.289 521.768,656.456 519.5,657.5C 518.548,655.955 518.215,654.288 518.5,652.5C 522.5,651.833 522.5,651.167 518.5,650.5C 518.336,647.813 518.503,645.146 519,642.5C 519.519,643.516 520.353,644.182 521.5,644.5C 528.354,642.892 535.021,643.225 541.5,645.5C 548.718,643.591 556.051,642.758 563.5,643C 565.577,643.807 567.411,644.974 569,646.5C 569.167,650.667 569.333,654.833 569.5,659C 569.438,663.683 568.772,668.183 567.5,672.5C 549.48,672.838 531.48,673.005 513.5,673C 512.833,672.333 512.167,671.667 511.5,671C 512.24,669.215 512.907,667.382 513.5,665.5C 512.833,664.833 512.167,664.167 511.5,663.5C 512.908,662.757 514.241,661.923 515.5,661C 514.251,659.176 513.085,659.343 512,661.5C 511.667,661.167 511.333,660.833 511,660.5C 509.941,663.618 508.608,666.618 507,669.5C 506.667,669.167 506.333,668.833 506,668.5C 494.304,677.751 484.638,676.084 477,663.5C 474.958,653.411 478.458,646.078 487.5,641.5 Z"/></g>
</svg>
